<?xml version="1.0" encoding="utf-8"?>
<!-- Generator: Adobe Illustrator 22.1.0, SVG Export Plug-In . SVG Version: 6.00 Build 0)  -->
<svg version="1.1" id="Layer_1" xmlns="http://www.w3.org/2000/svg" xmlns:xlink="http://www.w3.org/1999/xlink" x="0px" y="0px"
	 viewBox="0 0 1024 1024" style="enable-background:new 0 0 1024 1024;" xml:space="preserve">
<style type="text/css">
	.st0{fill:#68BD44;}
	.st1{fill:#152C18;}
</style>
<g>
	<g>
		<path class="st0" d="M180.3,454c9.8,0,17.9-8,17.9-17.9v-2.9c0-9.8-8-17.9-17.9-17.9H22.8c-9.8,0-17.9,8-17.9,17.9v157.5
			c0,9.8,8,17.9,17.9,17.9h157.5c9.8,0,17.9-8,17.9-17.9v-2.9c0-9.8-8-17.9-17.9-17.9H61.4c-9.8,0-17.9-8-17.9-17.9v-2.9
			c0-9.8,8-17.9,17.9-17.9h118.8c9.8,0,17.9-8,17.9-17.9v-2.9c0-9.8-8-17.9-17.9-17.9H61.4c-9.8,0-17.9-8-17.9-17.9v-2.9
			c0-9.8,8-17.9,17.9-17.9H180.3z"/>
		<path class="st1" d="M181,470.7l-12.3-11.3c-0.7-0.6-1.5-0.9-2.4-0.9c-1.1,0-2.1,0.5-2.8,1.3c-1.2,1.5-1,3.6,0.4,4.9l9.4,8.7
			l-9.4,8.7c-1.4,1.3-1.5,3.4-0.4,4.9c0.7,0.8,1.7,1.3,2.8,1.3c0.9,0,1.8-0.3,2.4-0.9L181,476c0.7-0.7,1.2-1.6,1.2-2.6
			C182.2,472.4,181.8,471.4,181,470.7z"/>
		<path class="st1" d="M181,548l-12.3-11.3c-0.7-0.6-1.5-0.9-2.4-0.9c-1.1,0-2.1,0.5-2.8,1.3c-1.2,1.5-1,3.6,0.4,4.9l9.4,8.7
			l-9.4,8.7c-1.4,1.3-1.5,3.4-0.4,4.9c0.7,0.8,1.7,1.3,2.8,1.3c0.9,0,1.8-0.3,2.4-0.9l12.3-11.3c0.7-0.7,1.2-1.6,1.2-2.6
			C182.2,549.6,181.8,548.7,181,548z"/>
	</g>
	<g>
		<path class="st0" d="M241.9,546.7c-1.5-1.5-2.2-3.5-2.2-6.2v-64.5c0-2.7,0.7-4.8,2.2-6.2c1.5-1.5,3.5-2.2,6.2-2.2H289
			c5.7,0,8.5,2.3,8.5,6.9c0,4.7-2.8,7-8.5,7h-31.7v19h29.4c5.7,0,8.5,2.3,8.5,7c0,4.6-2.8,6.9-8.5,6.9h-29.4v20.4H289
			c5.7,0,8.5,2.3,8.5,7c0,4.6-2.8,6.9-8.5,6.9h-40.9C245.5,548.9,243.4,548.1,241.9,546.7z"/>
		<path class="st0" d="M349.6,496.9c4,4,6,10.2,6,18.5v26.1c0,2.5-0.7,4.5-2.2,5.9c-1.5,1.4-3.5,2.1-6.1,2.1c-2.5,0-4.4-0.7-5.9-2.2
			c-1.5-1.5-2.3-3.4-2.3-5.8v-0.8c-1.2,2.8-3.1,5.1-5.8,6.7s-5.8,2.4-9.5,2.4c-3.8,0-7.3-0.8-10.4-2.3c-3.1-1.5-5.6-3.7-7.4-6.5
			c-1.8-2.8-2.7-5.8-2.7-9.2c0-4.2,1.1-7.4,3.2-9.8c2.1-2.4,5.5-4.1,10.2-5.2c4.7-1.1,11.1-1.6,19.3-1.6h3v-2.1c0-3.2-0.7-5.6-2.1-7
			c-1.4-1.5-3.8-2.2-7.1-2.2c-3.3,0-8.1,1.2-14.3,3.5c-1.8,0.8-3.3,1.3-4.5,1.3c-1.7,0-3-0.6-4-1.8c-1-1.2-1.5-2.7-1.5-4.7
			c0-1.5,0.3-2.8,1-3.8c0.7-1,1.8-1.9,3.3-2.8c2.7-1.5,6-2.6,9.9-3.5c3.9-0.8,7.7-1.3,11.5-1.3C339.4,490.8,345.6,492.8,349.6,496.9
			z M335.9,534.4c2.1-2.3,3.1-5.2,3.1-8.8v-2h-2c-6.2,0-10.6,0.5-13.1,1.5c-2.5,1-3.8,2.8-3.8,5.4c0,2.2,0.7,3.9,2.1,5.3
			c1.4,1.3,3.2,2,5.4,2C331.1,537.8,333.8,536.7,335.9,534.4z"/>
		<path class="st0" d="M376.7,548.6c-3.5-0.8-6.5-2-9.1-3.7c-1.2-0.7-2-1.6-2.7-2.8c-0.6-1.2-0.9-2.5-0.9-3.9c0-1.8,0.5-3.3,1.5-4.4
			c1-1.2,2.2-1.8,3.7-1.8c1,0,2,0.2,3,0.5c1,0.3,2,0.8,3.1,1.2c2.2,1,4.3,1.8,6.3,2.4c2.1,0.6,4.7,0.9,7.7,0.9
			c2.7,0,4.8-0.4,6.3-1.3c1.5-0.8,2.3-2,2.3-3.5c0-1.1-0.3-1.9-1-2.6c-0.7-0.7-1.9-1.2-3.6-1.8c-1.8-0.5-4.6-1.2-8.4-2
			c-6.8-1.3-11.8-3.3-14.8-5.9c-3-2.6-4.5-6.3-4.5-11c0-3.5,1.1-6.6,3.2-9.3c2.1-2.8,5-4.9,8.7-6.5c3.7-1.6,7.8-2.4,12.5-2.4
			c3.3,0,6.5,0.4,9.7,1.3c3.2,0.8,6,2,8.4,3.6c2.4,1.5,3.6,3.6,3.6,6.5c0,1.8-0.5,3.4-1.5,4.6c-1,1.2-2.2,1.8-3.7,1.8
			c-1.8,0-3.9-0.7-6.3-2.1c-1.9-1-3.7-1.8-5.3-2.3c-1.6-0.5-3.4-0.7-5.6-0.7c-2.4,0-4.3,0.4-5.7,1.3c-1.4,0.9-2.1,2.1-2.1,3.6
			c0,1.6,0.8,2.8,2.4,3.7c1.6,0.8,4.7,1.7,9.3,2.5c5.2,1,9.2,2.2,12.1,3.6c2.9,1.4,5,3.2,6.3,5.4c1.3,2.2,2,4.9,2,8.2
			c0,5.5-2.3,9.8-6.8,13c-4.5,3.2-10.5,4.8-18.1,4.8C384.3,549.8,380.2,549.4,376.7,548.6z"/>
		<path class="st0" d="M463.6,492.4c1.3-0.8,2.6-1.2,4.1-1.2c2.2,0,4.2,0.7,5.9,2.1c1.7,1.4,2.5,3.1,2.5,5.1c0,1.1-0.3,2.2-0.8,3.2
			l-31,63.7c-0.8,1.6-1.8,2.8-3.1,3.6c-1.3,0.8-2.7,1.2-4.2,1.2c-2.2,0-4-0.7-5.7-2.1c-1.6-1.4-2.4-3.1-2.4-5.1
			c0-1.2,0.3-2.4,0.8-3.5l7.6-15.8l-20.5-42.1c-0.5-1.1-0.7-2.1-0.7-3.1c0-2.1,0.9-3.8,2.7-5.3c1.8-1.5,3.9-2.2,6.2-2.2
			c1.5,0,3,0.4,4.3,1.2c1.3,0.8,2.3,2,3.1,3.6l14.3,31.2l14-31.2C461.3,494.4,462.3,493.2,463.6,492.4z"/>
		<path class="st1" d="M551.3,469c1.3,1.3,1.9,3.1,1.9,5.4v67.7c0,2.2-0.7,4-2,5.4c-1.3,1.4-3,2.1-5.1,2.1c-2.5,0-4.3-0.9-5.7-2.7
			l-42.1-54.8v50c0,2.2-0.6,4-1.8,5.4c-1.2,1.4-2.9,2.1-5.1,2.1c-2.2,0-3.8-0.7-5.1-2.1c-1.2-1.4-1.8-3.2-1.8-5.4v-67.7
			c0-2.2,0.7-4,2-5.4c1.3-1.3,3-2,5.2-2c2.4,0,4.2,0.9,5.5,2.7l42,54.6v-49.9c0-2.2,0.6-4,1.9-5.4c1.3-1.3,2.9-2,5-2
			C548.3,466.9,550,467.6,551.3,469z"/>
		<path class="st1" d="M608.5,496.9c3.8,3.9,5.7,9.8,5.7,17.7v28.2c0,2.1-0.6,3.7-1.8,4.9c-1.2,1.2-2.9,1.8-5.1,1.8
			c-2,0-3.6-0.6-4.9-1.8c-1.3-1.2-1.9-2.8-1.9-4.8v-2.5c-1.3,3-3.4,5.3-6.2,7c-2.8,1.7-6.1,2.5-9.8,2.5c-3.8,0-7.2-0.8-10.3-2.3
			c-3.1-1.5-5.5-3.7-7.3-6.3c-1.8-2.7-2.7-5.7-2.7-9c0-4.2,1.1-7.4,3.2-9.8c2.1-2.4,5.6-4.1,10.3-5.2c4.8-1.1,11.3-1.6,19.7-1.6h2.9
			v-2.7c0-3.8-0.8-6.5-2.4-8.3c-1.6-1.7-4.2-2.6-7.8-2.6c-2.2,0-4.5,0.3-6.8,1c-2.3,0.7-5,1.6-8.2,2.8c-2,1-3.5,1.5-4.4,1.5
			c-1.4,0-2.5-0.5-3.4-1.5c-0.9-1-1.3-2.3-1.3-3.9c0-1.3,0.3-2.4,1-3.4c0.7-1,1.7-1.9,3.3-2.7c2.7-1.5,5.9-2.6,9.6-3.5
			c3.7-0.8,7.4-1.3,11-1.3C598.9,491.1,604.7,493,608.5,496.9z M596.9,535.5c2.4-2.6,3.6-5.9,3.6-10v-2.4h-2.1
			c-5.2,0-9.2,0.2-12,0.7c-2.8,0.5-4.9,1.3-6.1,2.4c-1.2,1.2-1.8,2.7-1.8,4.7c0,2.5,0.9,4.5,2.6,6.1c1.7,1.6,3.9,2.4,6.4,2.4
			C591.3,539.4,594.4,538.1,596.9,535.5z"/>
		<path class="st1" d="M667.8,492.3c1-0.7,2.2-1,3.4-1c1.8,0,3.4,0.6,4.8,1.8c1.4,1.2,2.1,2.7,2.1,4.4c0,0.9-0.2,1.8-0.7,2.8
			L656.1,545c-0.7,1.5-1.7,2.6-2.9,3.3c-1.3,0.8-2.7,1.2-4.2,1.2c-1.5,0-2.9-0.4-4.2-1.2c-1.3-0.8-2.4-1.9-3.1-3.3l-21.5-44.7
			c-0.4-0.8-0.6-1.7-0.6-2.7c0-1.8,0.8-3.3,2.3-4.5s3.2-1.8,5.1-1.8c2.8,0,4.8,1.3,6.1,4l16.2,35.7l16-35.5
			C666,494.1,666.8,493,667.8,492.3z"/>
		<path class="st1" d="M684.7,478.9c-1.5-1.4-2.3-3.3-2.3-5.6s0.8-4.2,2.3-5.5c1.5-1.4,3.6-2.1,6.2-2.1c2.5,0,4.6,0.7,6.2,2.1
			c1.6,1.4,2.4,3.2,2.4,5.5s-0.8,4.2-2.3,5.6c-1.5,1.4-3.6,2.1-6.2,2.1C688.4,481,686.3,480.3,684.7,478.9z M685.8,547.8
			c-1.3-1.2-2-2.9-2-5.1v-44.5c0-2.2,0.7-3.9,2-5.1c1.3-1.2,3.1-1.7,5.1-1.7c2.1,0,3.8,0.6,5.2,1.7c1.4,1.2,2.1,2.8,2.1,5.1v44.5
			c0,2.2-0.7,3.9-2.1,5.1c-1.4,1.2-3.1,1.8-5.2,1.8C688.9,549.6,687.2,549,685.8,547.8z"/>
		<path class="st1" d="M763.2,493.1c1.3,1.2,2,2.9,2,5v45.6c0,8.8-2.5,15.5-7.4,20.1c-4.9,4.5-12.2,6.8-21.8,6.8
			c-8.4,0-15.4-1.6-21-4.7c-2.8-1.7-4.3-3.7-4.3-6.1c0-1.7,0.4-3,1.2-4c0.8-1,1.9-1.5,3.2-1.5c0.7,0,1.5,0.2,2.5,0.5
			c1,0.3,2,0.8,3.1,1.2c2.8,1.2,5.3,2,7.4,2.7c2.2,0.6,4.7,0.9,7.6,0.9c10.1,0,15.1-4.9,15.1-14.8v-7.4c-1.7,3.2-4.2,5.6-7.4,7.3
			c-3.2,1.7-6.9,2.6-11.1,2.6c-4.9,0-9.3-1.2-13.1-3.5c-3.8-2.3-6.8-5.6-8.9-9.9c-2.2-4.2-3.2-9.1-3.2-14.7c0-5.5,1.1-10.4,3.2-14.7
			c2.1-4.3,5.1-7.6,8.9-9.9c3.8-2.3,8.2-3.5,13.2-3.5c4.2,0,7.8,0.9,11.1,2.6c3.2,1.7,5.7,4.2,7.4,7.3v-3c0-2,0.7-3.6,2-4.8
			c1.3-1.2,3-1.8,5.2-1.8C760.2,491.3,761.9,491.9,763.2,493.1z M747,531.6c2.6-3,3.9-7.1,3.9-12.3c0-5.3-1.3-9.5-3.9-12.5
			c-2.6-3-6.2-4.5-10.8-4.5c-4.5,0-8.1,1.5-10.7,4.5c-2.6,3-3.9,7.2-3.9,12.5c0,5.2,1.3,9.3,3.9,12.3c2.6,3,6.2,4.5,10.7,4.5
			C740.8,536.1,744.4,534.6,747,531.6z"/>
		<path class="st1" d="M819.1,496.9c3.8,3.9,5.7,9.8,5.7,17.7v28.2c0,2.1-0.6,3.7-1.8,4.9c-1.2,1.2-2.9,1.8-5.1,1.8
			c-2,0-3.6-0.6-4.9-1.8c-1.3-1.2-1.9-2.8-1.9-4.8v-2.5c-1.3,3-3.4,5.3-6.2,7c-2.8,1.7-6.1,2.5-9.8,2.5c-3.8,0-7.2-0.8-10.3-2.3
			c-3.1-1.5-5.5-3.7-7.3-6.3c-1.8-2.7-2.7-5.7-2.7-9c0-4.2,1.1-7.4,3.2-9.8c2.1-2.4,5.6-4.1,10.3-5.2c4.8-1.1,11.3-1.6,19.7-1.6h2.9
			v-2.7c0-3.8-0.8-6.5-2.4-8.3c-1.6-1.7-4.2-2.6-7.8-2.6c-2.2,0-4.5,0.3-6.8,1c-2.3,0.7-5,1.6-8.2,2.8c-2,1-3.5,1.5-4.4,1.5
			c-1.4,0-2.5-0.5-3.4-1.5c-0.9-1-1.3-2.3-1.3-3.9c0-1.3,0.3-2.4,1-3.4c0.7-1,1.7-1.9,3.3-2.7c2.7-1.5,5.9-2.6,9.6-3.5
			c3.7-0.8,7.4-1.3,11-1.3C809.5,491.1,815.3,493,819.1,496.9z M807.5,535.5c2.4-2.6,3.6-5.9,3.6-10v-2.4H809c-5.2,0-9.2,0.2-12,0.7
			c-2.8,0.5-4.9,1.3-6.1,2.4c-1.2,1.2-1.8,2.7-1.8,4.7c0,2.5,0.9,4.5,2.6,6.1c1.7,1.6,3.9,2.4,6.4,2.4
			C801.9,539.4,805,538.1,807.5,535.5z"/>
		<path class="st1" d="M871.7,544c0,1.8-0.8,3.3-2.3,4.2c-1.5,1-3.6,1.4-6.4,1.2l-3.1-0.2c-12.9-0.9-19.4-7.8-19.4-20.8v-25.2h-5.8
			c-2.1,0-3.7-0.5-4.8-1.4c-1.1-0.9-1.7-2.3-1.7-4c0-1.8,0.6-3.1,1.7-4c1.1-0.9,2.7-1.4,4.8-1.4h5.8v-10.6c0-2.1,0.7-3.7,2-5
			c1.3-1.2,3.1-1.8,5.3-1.8c2.2,0,3.9,0.6,5.2,1.8c1.3,1.2,2,2.9,2,5v10.6h9.8c2.1,0,3.7,0.5,4.8,1.4c1.1,0.9,1.7,2.3,1.7,4
			c0,1.8-0.6,3.1-1.7,4c-1.1,0.9-2.7,1.4-4.8,1.4H855v26.2c0,5.7,2.6,8.7,7.8,9.1l3.1,0.2C869.8,539.1,871.7,540.8,871.7,544z"/>
		<path class="st1" d="M877.2,478.9c-1.5-1.4-2.3-3.3-2.3-5.6s0.8-4.2,2.3-5.5c1.5-1.4,3.6-2.1,6.2-2.1c2.5,0,4.6,0.7,6.2,2.1
			c1.6,1.4,2.4,3.2,2.4,5.5s-0.8,4.2-2.3,5.6c-1.5,1.4-3.6,2.1-6.2,2.1C880.8,481,878.8,480.3,877.2,478.9z M878.3,547.8
			c-1.3-1.2-2-2.9-2-5.1v-44.5c0-2.2,0.7-3.9,2-5.1c1.3-1.2,3.1-1.7,5.1-1.7c2.1,0,3.8,0.6,5.2,1.7c1.4,1.2,2.1,2.8,2.1,5.1v44.5
			c0,2.2-0.7,3.9-2.1,5.1c-1.4,1.2-3.1,1.8-5.2,1.8C881.4,549.6,879.7,549,878.3,547.8z"/>
		<path class="st1" d="M913.3,546.2c-4.3-2.4-7.7-5.8-10.1-10.3c-2.4-4.5-3.6-9.7-3.6-15.6c0-5.9,1.2-11.1,3.6-15.5
			c2.4-4.4,5.8-7.8,10.1-10.2c4.3-2.4,9.4-3.6,15.2-3.6s10.8,1.2,15.2,3.6c4.3,2.4,7.7,5.8,10,10.2c2.3,4.4,3.5,9.6,3.5,15.5
			c0,5.9-1.2,11.1-3.5,15.6c-2.3,4.5-5.7,7.9-10,10.3c-4.3,2.4-9.4,3.6-15.2,3.6S917.6,548.6,913.3,546.2z M939.1,534
			c2.5-3.1,3.7-7.6,3.7-13.6c0-5.9-1.2-10.4-3.7-13.6c-2.5-3.1-6-4.7-10.6-4.7s-8.2,1.6-10.7,4.7c-2.5,3.1-3.8,7.6-3.8,13.6
			c0,6,1.2,10.5,3.7,13.6c2.5,3.1,6,4.6,10.6,4.6C933,538.6,936.6,537.1,939.1,534z"/>
		<path class="st1" d="M1014.1,496.8c3.3,3.8,5,9.7,5,17.4v28.4c0,2.2-0.6,3.8-1.9,5.1c-1.3,1.2-3,1.8-5.3,1.8c-2.2,0-4-0.6-5.3-1.8
			c-1.3-1.2-2-2.9-2-5.1v-27.6c0-4.4-0.8-7.6-2.5-9.6c-1.7-2-4.3-3-7.8-3c-4.2,0-7.5,1.3-10,3.9c-2.5,2.6-3.7,6.1-3.7,10.5v25.7
			c0,2.2-0.7,3.8-2,5.1c-1.3,1.2-3.1,1.8-5.3,1.8c-2.2,0-4-0.6-5.3-1.8c-1.3-1.2-1.9-2.9-1.9-5.1V498c0-2,0.7-3.6,2-4.8
			c1.3-1.2,3.1-1.8,5.3-1.8c2,0,3.6,0.6,4.9,1.8c1.3,1.2,1.9,2.8,1.9,4.7v3.1c1.9-3.2,4.5-5.6,7.7-7.3c3.2-1.7,6.9-2.5,11-2.5
			C1005.8,491.1,1010.8,493,1014.1,496.8z"/>
	</g>
</g>
</svg>
