<?xml version="1.0" encoding="utf-8"?>
<!-- Generator: Adobe Illustrator 22.1.0, SVG Export Plug-In . SVG Version: 6.00 Build 0)  -->
<svg version="1.1" id="Layer_1" xmlns="http://www.w3.org/2000/svg" xmlns:xlink="http://www.w3.org/1999/xlink" x="0px" y="0px"
	 viewBox="0 0 1024 1024" style="enable-background:new 0 0 1024 1024;" xml:space="preserve">
<style type="text/css">
	.st0{fill:#68BD44;}
	.st1{fill:#152C18;}
</style>
<g>
	<g>
		<path class="st0" d="M842.4,171.1c41.2,0,74.9-33.7,74.9-74.9V83.9c0-41.2-33.7-74.9-74.9-74.9H181.6c-41.2,0-74.9,33.7-74.9,74.9
			v660.9c0,41.2,33.7,74.9,74.9,74.9h660.9c41.2,0,74.9-33.7,74.9-74.9v-12.3c0-41.2-33.7-74.9-74.9-74.9H343.7
			c-41.2,0-74.9-33.7-74.9-74.9v-12.3c0-41.2,33.7-74.9,74.9-74.9h498.7c41.2,0,74.9-33.7,74.9-74.9v-12.3
			c0-41.2-33.7-74.9-74.9-74.9H343.7c-41.2,0-74.9-33.7-74.9-74.9v-12.3c0-41.2,33.7-74.9,74.9-74.9H842.4z"/>
		<path class="st1" d="M845.7,241.1l-51.7-47.4c-2.8-2.6-6.4-4-10.2-4c-4.6,0-8.9,2-11.7,5.6c-5,6.1-4.3,15.2,1.5,20.5l39.3,36.3
			l-39.3,36.3c-5.8,5.4-6.5,14.4-1.5,20.5c2.9,3.6,7.1,5.6,11.7,5.6c3.8,0,7.4-1.4,10.2-4l51.7-47.4c3.1-2.9,4.9-6.9,4.9-11.1
			C850.5,248,848.8,244,845.7,241.1z"/>
		<path class="st1" d="M845.7,565.4L793.9,518c-2.8-2.6-6.4-4-10.2-4c-4.6,0-8.9,2-11.7,5.6c-5,6.1-4.3,15.2,1.5,20.5l39.3,36.3
			l-39.3,36.3c-5.8,5.4-6.5,14.4-1.5,20.5c2.9,3.6,7.1,5.6,11.7,5.6c3.8,0,7.4-1.4,10.2-4l51.7-47.4c3.1-2.9,4.9-6.9,4.9-11.1
			C850.5,572.3,848.8,568.3,845.7,565.4z"/>
	</g>
	<g>
		<path class="st0" d="M50,986.5c-1.7-1.7-2.6-4.2-2.6-7.4v-76.9c0-3.2,0.9-5.7,2.6-7.4c1.7-1.7,4.2-2.6,7.4-2.6h48.7
			c6.8,0,10.2,2.8,10.2,8.3c0,5.6-3.4,8.4-10.2,8.4H68.3v22.7h35.1c6.8,0,10.2,2.8,10.2,8.4c0,5.5-3.4,8.3-10.2,8.3H68.3v24.4h37.8
			c6.8,0,10.2,2.8,10.2,8.4c0,5.5-3.4,8.3-10.2,8.3H57.5C54.3,989.1,51.8,988.3,50,986.5z"/>
		<path class="st0" d="M178.4,927.1c4.8,4.8,7.2,12.2,7.2,22.1v31.1c0,3-0.9,5.4-2.6,7.1c-1.7,1.7-4.2,2.5-7.3,2.5
			c-2.9,0-5.3-0.9-7.1-2.7c-1.8-1.8-2.7-4.1-2.7-7v-1c-1.4,3.4-3.7,6.1-6.9,8c-3.2,1.9-7,2.9-11.3,2.9c-4.6,0-8.7-0.9-12.5-2.8
			c-3.7-1.8-6.7-4.4-8.8-7.7c-2.2-3.3-3.2-7-3.2-11c0-5,1.3-8.9,3.8-11.7c2.5-2.8,6.6-4.9,12.2-6.2c5.6-1.3,13.3-1.9,23-1.9h3.6
			v-2.5c0-3.9-0.8-6.6-2.5-8.4c-1.7-1.7-4.5-2.6-8.5-2.6c-3.9,0-9.6,1.4-17.1,4.1c-2.1,1-3.9,1.5-5.4,1.5c-2,0-3.6-0.7-4.8-2.1
			c-1.2-1.4-1.8-3.3-1.8-5.6c0-1.8,0.4-3.3,1.2-4.5c0.8-1.2,2.2-2.3,4-3.3c3.2-1.7,7.1-3.1,11.8-4.1c4.6-1,9.2-1.5,13.7-1.5
			C166.3,919.9,173.6,922.3,178.4,927.1z M162,971.9c2.5-2.7,3.7-6.2,3.7-10.5V959h-2.3c-7.4,0-12.6,0.6-15.6,1.8
			c-3,1.2-4.5,3.3-4.5,6.5c0,2.6,0.8,4.7,2.5,6.3c1.7,1.6,3.8,2.4,6.4,2.4C156.3,975.9,159.6,974.6,162,971.9z"/>
		<path class="st0" d="M210.7,988.9c-4.1-0.9-7.8-2.4-10.9-4.4c-1.4-0.8-2.4-1.9-3.2-3.3c-0.7-1.4-1.1-2.9-1.1-4.7
			c0-2.1,0.6-3.9,1.8-5.3c1.2-1.4,2.7-2.1,4.4-2.1c1.2,0,2.4,0.2,3.6,0.6c1.2,0.4,2.4,0.9,3.7,1.4c2.6,1.2,5.1,2.1,7.6,2.8
			c2.5,0.7,5.6,1,9.2,1c3.2,0,5.7-0.5,7.5-1.5c1.8-1,2.7-2.4,2.7-4.1c0-1.3-0.4-2.3-1.2-3.1c-0.8-0.8-2.2-1.5-4.3-2.1
			c-2.1-0.6-5.5-1.4-10-2.3c-8.2-1.6-14-3.9-17.6-7c-3.6-3.1-5.4-7.5-5.4-13.1c0-4.1,1.3-7.8,3.8-11.1c2.5-3.3,6-5.9,10.4-7.8
			c4.4-1.9,9.4-2.8,14.9-2.8c3.9,0,7.8,0.5,11.6,1.5c3.8,1,7.1,2.4,10,4.3c2.8,1.7,4.3,4.3,4.3,7.7c0,2.2-0.6,4-1.8,5.5
			c-1.2,1.5-2.7,2.2-4.4,2.2c-2.1,0-4.6-0.8-7.6-2.5c-2.3-1.2-4.4-2.1-6.3-2.7c-1.9-0.6-4.1-0.9-6.7-0.9c-2.8,0-5.1,0.5-6.7,1.6
			c-1.7,1.1-2.5,2.5-2.5,4.3c0,1.9,1,3.4,2.9,4.4c1.9,1,5.6,2,11.1,3c6.1,1.2,11,2.6,14.4,4.3c3.5,1.7,6,3.8,7.6,6.4
			c1.6,2.6,2.3,5.8,2.3,9.8c0,6.5-2.7,11.7-8,15.5c-5.4,3.9-12.5,5.8-21.5,5.8C219.7,990.2,214.9,989.8,210.7,988.9z"/>
		<path class="st0" d="M314.3,921.8c1.5-0.9,3.1-1.4,4.9-1.4c2.7,0,5,0.8,7,2.5c2,1.7,3,3.7,3,6.1c0,1.3-0.3,2.6-1,3.9l-37,76
			c-0.9,1.9-2.2,3.4-3.7,4.3c-1.6,1-3.2,1.4-5,1.4c-2.6,0-4.8-0.8-6.7-2.5c-1.9-1.7-2.9-3.7-2.9-6.1c0-1.5,0.3-2.8,1-4.1l9.1-18.9
			L258.5,933c-0.6-1.3-0.8-2.5-0.8-3.7c0-2.5,1.1-4.6,3.2-6.3c2.2-1.7,4.6-2.6,7.4-2.6c1.8,0,3.5,0.5,5.1,1.4c1.6,1,2.8,2.4,3.7,4.3
			l17.1,37.2l16.6-37.2C311.6,924.2,312.8,922.8,314.3,921.8z"/>
		<path class="st1" d="M418.9,893.8c1.5,1.6,2.3,3.7,2.3,6.4V981c0,2.7-0.8,4.8-2.3,6.5c-1.6,1.7-3.6,2.5-6.1,2.5
			c-2.9,0-5.2-1.1-6.7-3.2l-50.2-65.4V981c0,2.7-0.7,4.8-2.2,6.5c-1.5,1.7-3.5,2.5-6.1,2.5c-2.6,0-4.6-0.8-6.1-2.5
			c-1.5-1.7-2.2-3.8-2.2-6.5v-80.8c0-2.7,0.8-4.8,2.3-6.4c1.6-1.6,3.6-2.4,6.2-2.4c2.8,0,5,1.1,6.6,3.2l50.1,65.1v-59.4
			c0-2.7,0.8-4.8,2.3-6.4c1.5-1.6,3.5-2.4,6-2.4C415.3,891.4,417.3,892.2,418.9,893.8z"/>
		<path class="st1" d="M487.1,927.1c4.5,4.6,6.8,11.7,6.8,21.1v33.6c0,2.5-0.7,4.4-2.2,5.8c-1.5,1.4-3.5,2.1-6.1,2.1
			c-2.4,0-4.3-0.7-5.8-2.2c-1.5-1.5-2.3-3.4-2.3-5.8v-3c-1.6,3.6-4,6.4-7.4,8.4c-3.3,2-7.2,3-11.6,3c-4.5,0-8.6-0.9-12.2-2.8
			c-3.7-1.8-6.6-4.4-8.7-7.6c-2.1-3.2-3.2-6.8-3.2-10.7c0-5,1.3-8.9,3.8-11.7c2.5-2.8,6.6-4.9,12.3-6.2c5.7-1.3,13.5-1.9,23.5-1.9
			h3.4v-3.2c0-4.5-1-7.8-2.9-9.8c-1.9-2.1-5-3.1-9.4-3.1c-2.7,0-5.4,0.4-8.1,1.2c-2.8,0.8-6,1.9-9.8,3.4c-2.4,1.2-4.1,1.8-5.2,1.8
			c-1.7,0-3-0.6-4.1-1.8c-1.1-1.2-1.6-2.7-1.6-4.7c0-1.6,0.4-2.9,1.2-4.1c0.8-1.1,2.1-2.2,3.9-3.2c3.2-1.7,7-3.1,11.5-4.1
			c4.4-1,8.8-1.5,13.1-1.5C475.6,920.2,482.6,922.5,487.1,927.1z M473.2,973.2c2.9-3.1,4.3-7,4.3-11.9v-2.9h-2.5
			c-6.1,0-10.9,0.3-14.3,0.8c-3.4,0.6-5.8,1.5-7.3,2.9c-1.5,1.4-2.2,3.3-2.2,5.6c0,2.9,1,5.3,3.1,7.2c2.1,1.9,4.6,2.8,7.6,2.8
			C466.6,977.9,470.3,976.3,473.2,973.2z"/>
		<path class="st1" d="M557.8,921.7c1.2-0.8,2.6-1.2,4.1-1.2c2.1,0,4,0.7,5.7,2.1c1.7,1.4,2.5,3.2,2.5,5.3c0,1.1-0.3,2.2-0.8,3.3
			l-25.5,53.2c-0.8,1.7-2,3.1-3.5,4c-1.5,0.9-3.2,1.4-5,1.4c-1.7,0-3.4-0.5-5-1.4c-1.6-0.9-2.8-2.2-3.6-4l-25.6-53.2
			c-0.5-0.9-0.7-2-0.7-3.2c0-2.1,0.9-3.9,2.7-5.4c1.8-1.5,3.8-2.2,6.1-2.2c3.3,0,5.7,1.6,7.3,4.8l19.3,42.5l19.1-42.4
			C555.6,923.8,556.6,922.5,557.8,921.7z"/>
		<path class="st1" d="M578,905.7c-1.8-1.7-2.8-3.9-2.8-6.7s0.9-5,2.8-6.6c1.8-1.7,4.3-2.5,7.4-2.5c3,0,5.5,0.8,7.4,2.5
			c1.9,1.7,2.8,3.9,2.8,6.6s-0.9,5-2.8,6.7c-1.8,1.7-4.3,2.5-7.4,2.5C582.3,908.2,579.8,907.4,578,905.7z M579.3,987.8
			c-1.6-1.4-2.4-3.5-2.4-6.1v-53.1c0-2.7,0.8-4.7,2.4-6.1c1.6-1.4,3.6-2.1,6.1-2.1c2.5,0,4.5,0.7,6.2,2.1c1.7,1.4,2.5,3.4,2.5,6.1
			v53.1c0,2.7-0.8,4.7-2.5,6.1c-1.7,1.4-3.7,2.1-6.2,2.1C582.9,990,580.9,989.2,579.3,987.8z"/>
		<path class="st1" d="M671.5,922.7c1.6,1.5,2.3,3.4,2.3,5.9v54.3c0,10.5-2.9,18.5-8.8,23.9c-5.9,5.4-14.5,8.1-26,8.1
			c-10,0-18.3-1.9-25-5.6c-3.4-2-5.1-4.5-5.1-7.3c0-2,0.5-3.6,1.4-4.8c1-1.2,2.2-1.8,3.8-1.8c0.8,0,1.8,0.2,3,0.6
			c1.2,0.4,2.4,0.9,3.7,1.4c3.3,1.4,6.3,2.4,8.9,3.2c2.6,0.7,5.6,1.1,9,1.1c12,0,18-5.9,18-17.6v-8.8c-2,3.8-5,6.7-8.8,8.7
			c-3.9,2.1-8.3,3.1-13.2,3.1c-5.9,0-11.1-1.4-15.6-4.2c-4.5-2.8-8.1-6.7-10.7-11.8c-2.6-5-3.9-10.9-3.9-17.5
			c0-6.6,1.3-12.5,3.8-17.5c2.5-5.1,6.1-9,10.7-11.8c4.6-2.8,9.8-4.2,15.7-4.2c5,0,9.4,1,13.2,3.1c3.9,2.1,6.8,5,8.8,8.7v-3.6
			c0-2.4,0.8-4.3,2.3-5.8c1.6-1.5,3.6-2.2,6.2-2.2C667.9,920.5,670,921.2,671.5,922.7z M652.2,968.5c3.1-3.6,4.6-8.5,4.6-14.7
			c0-6.3-1.5-11.3-4.6-14.9c-3.1-3.6-7.4-5.4-12.9-5.4c-5.4,0-9.7,1.8-12.8,5.4c-3.1,3.6-4.7,8.5-4.7,14.9c0,6.2,1.6,11.1,4.7,14.7
			c3.1,3.6,7.4,5.4,12.8,5.4C644.8,973.9,649.1,972.1,652.2,968.5z"/>
		<path class="st1" d="M738.2,927.1c4.5,4.6,6.8,11.7,6.8,21.1v33.6c0,2.5-0.7,4.4-2.2,5.8c-1.5,1.4-3.5,2.1-6.1,2.1
			c-2.4,0-4.3-0.7-5.8-2.2c-1.5-1.5-2.3-3.4-2.3-5.8v-3c-1.6,3.6-4,6.4-7.4,8.4c-3.3,2-7.2,3-11.6,3c-4.5,0-8.6-0.9-12.2-2.8
			c-3.7-1.8-6.6-4.4-8.7-7.6c-2.1-3.2-3.2-6.8-3.2-10.7c0-5,1.3-8.9,3.8-11.7c2.5-2.8,6.6-4.9,12.3-6.2c5.7-1.3,13.5-1.9,23.5-1.9
			h3.4v-3.2c0-4.5-1-7.8-2.9-9.8c-1.9-2.1-5-3.1-9.4-3.1c-2.7,0-5.4,0.4-8.1,1.2c-2.8,0.8-6,1.9-9.8,3.4c-2.4,1.2-4.1,1.8-5.2,1.8
			c-1.7,0-3-0.6-4.1-1.8c-1.1-1.2-1.6-2.7-1.6-4.7c0-1.6,0.4-2.9,1.2-4.1c0.8-1.1,2.1-2.2,3.9-3.2c3.2-1.7,7-3.1,11.5-4.1
			c4.4-1,8.8-1.5,13.1-1.5C726.7,920.2,733.7,922.5,738.2,927.1z M724.3,973.2c2.9-3.1,4.3-7,4.3-11.9v-2.9h-2.5
			c-6.1,0-10.9,0.3-14.3,0.8c-3.4,0.6-5.8,1.5-7.3,2.9c-1.5,1.4-2.2,3.3-2.2,5.6c0,2.9,1,5.3,3.1,7.2c2.1,1.9,4.6,2.8,7.6,2.8
			C717.7,977.9,721.4,976.3,724.3,973.2z"/>
		<path class="st1" d="M800.9,983.4c0,2.2-0.9,3.9-2.7,5s-4.3,1.6-7.6,1.4l-3.7-0.3c-15.4-1.1-23.1-9.4-23.1-24.8v-30h-6.9
			c-2.5,0-4.4-0.6-5.7-1.7c-1.3-1.1-2-2.7-2-4.8c0-2.1,0.7-3.7,2-4.8c1.3-1.1,3.2-1.7,5.7-1.7h6.9v-12.7c0-2.5,0.8-4.4,2.3-5.9
			c1.6-1.5,3.7-2.2,6.3-2.2c2.6,0,4.6,0.7,6.2,2.2c1.6,1.5,2.3,3.4,2.3,5.9v12.7h11.7c2.5,0,4.4,0.6,5.7,1.7c1.3,1.1,2,2.7,2,4.8
			c0,2.1-0.7,3.7-2,4.8c-1.3,1.1-3.2,1.7-5.7,1.7h-11.7V966c0,6.8,3.1,10.4,9.4,10.9l3.7,0.3C798.6,977.4,800.9,979.5,800.9,983.4z"
			/>
		<path class="st1" d="M807.5,905.7c-1.8-1.7-2.8-3.9-2.8-6.7s0.9-5,2.8-6.6c1.8-1.7,4.3-2.5,7.4-2.5c3,0,5.5,0.8,7.4,2.5
			c1.9,1.7,2.8,3.9,2.8,6.6s-0.9,5-2.8,6.7c-1.8,1.7-4.3,2.5-7.4,2.5C811.8,908.2,809.3,907.4,807.5,905.7z M808.8,987.8
			c-1.6-1.4-2.4-3.5-2.4-6.1v-53.1c0-2.7,0.8-4.7,2.4-6.1c1.6-1.4,3.6-2.1,6.1-2.1c2.5,0,4.5,0.7,6.2,2.1c1.7,1.4,2.5,3.4,2.5,6.1
			v53.1c0,2.7-0.8,4.7-2.5,6.1c-1.7,1.4-3.7,2.1-6.2,2.1C812.4,990,810.4,989.2,808.8,987.8z"/>
		<path class="st1" d="M850.5,986c-5.2-2.8-9.2-6.9-12-12.2c-2.8-5.3-4.3-11.5-4.3-18.6c0-7.1,1.4-13.2,4.3-18.5
			c2.8-5.3,6.9-9.3,12-12.2c5.2-2.8,11.2-4.3,18.1-4.3s12.9,1.4,18.1,4.3c5.2,2.8,9.2,6.9,12,12.2c2.8,5.3,4.2,11.4,4.2,18.5
			c0,7.1-1.4,13.3-4.2,18.6c-2.8,5.3-6.8,9.4-12,12.2c-5.2,2.8-11.2,4.3-18.1,4.3S855.7,988.8,850.5,986z M881.2,971.4
			c2.9-3.7,4.4-9.1,4.4-16.2c0-7.1-1.5-12.5-4.4-16.2c-2.9-3.7-7.2-5.6-12.7-5.6s-9.7,1.9-12.7,5.6c-3,3.7-4.5,9.1-4.5,16.2
			c0,7.2,1.5,12.6,4.4,16.2c2.9,3.7,7.2,5.5,12.7,5.5C874,976.9,878.3,975.1,881.2,971.4z"/>
		<path class="st1" d="M970.7,927.1c3.9,4.6,5.9,11.5,5.9,20.8v33.8c0,2.6-0.8,4.6-2.3,6.1c-1.5,1.5-3.6,2.2-6.3,2.2
			c-2.7,0-4.8-0.7-6.3-2.2c-1.6-1.5-2.3-3.5-2.3-6.1v-32.9c0-5.2-1-9-3-11.4c-2-2.4-5.1-3.6-9.3-3.6c-5,0-8.9,1.6-11.9,4.7
			c-3,3.1-4.5,7.3-4.5,12.5v30.7c0,2.6-0.8,4.6-2.3,6.1c-1.6,1.5-3.7,2.2-6.3,2.2c-2.7,0-4.7-0.7-6.3-2.2c-1.5-1.5-2.3-3.5-2.3-6.1
			v-53.2c0-2.4,0.8-4.3,2.3-5.8s3.7-2.2,6.3-2.2c2.4,0,4.3,0.7,5.8,2.1c1.5,1.4,2.3,3.3,2.3,5.6v3.7c2.3-3.8,5.4-6.6,9.2-8.7
			c3.9-2,8.2-3,13.1-3C960.7,920.2,966.7,922.5,970.7,927.1z"/>
	</g>
</g>
</svg>
